<svg width="506" height="506" viewBox="0 0 506 506" fill="none" xmlns="http://www.w3.org/2000/svg">
<path d="M151.378 366.681C99.5134 367.525 75.7314 366.597 94.5377 364.573C113.428 362.549 94.4534 362.296 65.1897 362.549C35.9261 362.802 23.023 360.272 66.2861 357.658C109.549 355.043 268.18 352.345 249.964 355.718C231.748 359.091 218.339 359.85 229.387 361.115C240.434 362.38 222.724 365.501 151.378 366.681Z" fill="#99ADF9"/>
<path d="M367.356 350.068C313.551 350.574 288.926 352.176 308.491 353.778C328.141 355.381 319.286 355.971 288.841 356.477C258.397 356.983 234.446 360.188 279.312 361.874C324.261 363.477 488.711 362.043 469.736 358.923C450.761 355.802 436.846 355.381 448.231 353.694C459.785 352.092 441.4 349.393 367.356 350.068Z" fill="#99ADF9"/>
<path d="M238.747 356.056H81.2126C79.8633 356.056 78.6826 354.959 78.6826 353.526V347.116C78.6826 345.767 79.779 344.586 81.2126 344.586H238.832C240.181 344.586 241.362 345.683 241.362 347.116V353.526C241.277 354.959 240.181 356.056 238.747 356.056Z" fill="#E1ECFF"/>
<path d="M241.952 356.056H143.704C142.354 356.056 141.174 354.959 141.174 353.526V347.116C141.174 345.767 142.27 344.586 143.704 344.586H241.952C243.302 344.586 244.482 345.683 244.482 347.116V353.526C244.482 354.959 243.386 356.056 241.952 356.056Z" fill="#CDE0FC"/>
<path d="M198.436 344.755H83.7428C81.8875 344.755 80.2008 343.574 79.5261 341.803L53.3828 269.529C52.2865 266.578 54.4791 263.542 57.5995 263.542H172.293C174.148 263.542 175.835 264.722 176.509 266.493L202.653 338.767C203.665 341.634 201.556 344.755 198.436 344.755Z" fill="#CDE0FC"/>
<path d="M191.436 340.622H86.6101C84.7548 340.622 83.0681 339.442 82.3935 337.671L59.2861 273.662C58.1898 270.71 60.3825 267.674 63.5028 267.674H168.413C170.269 267.674 171.955 268.855 172.63 270.626L195.737 334.635C196.749 337.502 194.557 340.622 191.436 340.622Z" fill="#FF8D76"/>
<path d="M96.8991 352.007H85.9358C85.5141 352.007 85.1768 351.67 85.1768 351.248V349.393C85.1768 348.971 85.5141 348.634 85.9358 348.634H96.8991C97.3208 348.634 97.6581 348.971 97.6581 349.393V351.248C97.6581 351.67 97.3208 352.007 96.8991 352.007Z" fill="#CDE0FC"/>
<path d="M112.163 352.007H101.2C100.778 352.007 100.441 351.67 100.441 351.248V349.393C100.441 348.971 100.778 348.634 101.2 348.634H112.163C112.585 348.634 112.922 348.971 112.922 349.393V351.248C113.007 351.67 112.585 352.007 112.163 352.007Z" fill="#CDE0FC"/>
<path d="M105.585 334.129H165.883C168.919 334.129 170.606 330.587 168.751 328.225L129.283 278.047C127.596 275.854 124.138 276.36 123.042 278.89L102.212 329.069C101.2 331.43 102.971 334.129 105.585 334.129Z" fill="#FEC272"/>
<path d="M123.38 291.962L130.548 313.72C130.885 314.816 131.982 315.576 133.162 315.576H134.259C135.692 315.576 136.704 314.479 136.62 313.045L134.68 291.456C134.596 290.107 133.415 289.01 132.066 289.01L125.741 288.842C123.97 288.757 122.789 290.36 123.38 291.962Z" fill="white"/>
<path d="M139.234 322.407C139.403 324.599 137.716 326.37 135.524 326.37C133.331 326.37 131.391 324.599 131.223 322.407C131.054 320.214 132.741 318.443 134.933 318.443C137.126 318.443 139.066 320.214 139.234 322.407Z" fill="white"/>
<path d="M36.8535 252.578L47.2265 260.759C47.2265 260.759 50.0095 256.879 55.9972 254.855C61.9848 252.831 70.0808 254.349 70.0808 254.349L74.2975 230.567C74.2975 230.567 69.2375 246.422 61.8162 247.518C54.3948 248.615 48.3228 238.663 48.3228 238.663C48.3228 238.663 52.7082 249.542 48.4915 252.831C44.1062 256.205 36.8535 252.578 36.8535 252.578Z" fill="#1C3177"/>
<path d="M206.279 321.985L214.544 334.55L236.049 309.588L214.544 342.309L206.279 321.985Z" fill="#E1EAF6"/>
<path d="M218.592 242.711L237.482 208.978L223.146 243.639L218.592 242.711Z" fill="#E1EAF6"/>
<path d="M314.395 258.144C313.13 259.747 311.443 261.602 309.672 263.626C300.395 273.746 285.553 287.661 277.878 291.793C268.686 296.685 260.59 297.865 256.795 292.468C253 287.071 252.747 282.854 258.566 276.36C264.385 269.867 286.227 240.94 297.781 231.495C305.961 224.833 316.166 227.869 319.961 234.447C323.84 240.856 322.238 248.446 314.395 258.144Z" fill="#F774B9"/>
<path d="M309.672 263.542C300.395 273.662 285.553 287.577 277.878 291.709C268.686 296.6 260.59 297.781 256.795 292.384C271.047 291.203 298.034 260.674 298.034 260.674L309.672 263.542Z" fill="#F261B4"/>
<path d="M275.349 288.504C267.506 303.516 253.675 294.155 242.88 283.613C232.086 273.071 220.026 256.289 218.255 251.313C217.665 249.711 217.496 248.024 217.665 246.338C217.918 242.88 219.689 239.844 222.134 239.844C225.761 239.844 254.181 258.903 263.626 266.746C270.626 272.565 275.855 277.541 276.529 282.77C276.698 284.709 276.361 286.565 275.349 288.504Z" fill="#F774B9"/>
<path d="M275.349 288.504C267.506 303.516 253.675 294.155 242.88 283.613C232.086 273.071 220.026 256.289 218.255 251.313C217.665 249.711 217.496 248.024 217.665 246.338C219.604 246.591 221.628 247.687 223.652 249.88C223.652 249.88 247.856 281.589 260.084 287.83C264.385 290.022 270.457 287.324 276.445 282.77C276.698 284.709 276.361 286.565 275.349 288.504Z" fill="#F261B4"/>
<path d="M225.001 250.892C224.158 255.024 222.303 264.975 218.761 266.578C215.134 268.18 208.725 266.409 207.123 262.277C205.52 258.06 209.653 252.578 213.701 247.35C217.749 242.121 220.279 239.844 222.556 240.013C224.833 240.181 225.845 246.422 225.001 250.892Z" fill="#F774B9"/>
<path d="M207.544 259.915C207.544 260.337 207.123 257.807 207.544 260.337C207.966 262.867 212.014 262.614 212.604 261.518C214.544 258.06 221.797 242.964 220.447 241.784C219.098 240.603 207.797 252.831 207.544 259.915Z" fill="#FF97C9"/>
<path d="M398.053 324.683C398.053 324.683 418.799 322.912 428.666 306.467C438.533 290.022 422.679 251.482 421.751 236.218C420.823 220.953 433.389 208.978 446.545 220.953C459.701 232.929 459.364 272.397 454.641 290.866C449.834 309.419 435.582 323.587 416.607 330.249C403.198 334.972 395.523 332.02 395.523 332.02L398.053 324.683Z" fill="#F774B9"/>
<path d="M338.345 332.948C333.791 347.706 321.732 355.381 308.913 356.73C296.094 358.079 273.324 359.091 271.132 357.658C270.12 356.983 269.614 355.549 269.782 353.947C269.951 352.007 271.047 349.73 273.156 347.959C277.035 344.67 290.95 344.67 290.95 344.67C290.95 344.67 288.42 344.333 284.794 341.55C281.167 338.683 272.65 333.032 279.396 312.118C286.143 291.203 305.961 286.396 325.695 293.311C330.249 294.914 333.623 298.54 335.9 303.094C340.454 311.78 341.044 324.262 338.345 332.948Z" fill="#F774B9"/>
<path d="M303.6 344.417C303.6 345.176 302.926 345.682 302.251 345.682C302.082 345.682 282.601 345.345 276.614 347.032C271.638 348.465 271.385 351.586 271.301 353.525V353.947C271.132 355.634 272.06 355.802 272.228 355.802C272.987 355.887 273.493 356.561 273.409 357.32C273.325 357.995 272.734 358.501 272.06 358.501C271.975 358.501 271.975 358.501 271.891 358.501C270.373 358.332 268.265 356.899 268.602 353.694V353.272C268.771 351.164 269.108 346.357 275.855 344.417C278.3 343.743 282.77 343.321 287.24 343.152C285.047 342.478 283.107 341.719 281.758 340.791C274.674 335.815 273.409 327.804 277.457 313.214C280.493 302.335 286.649 296.347 292.89 292.974C293.565 292.637 294.408 292.89 294.661 293.649C294.914 294.239 294.661 294.914 294.071 295.251C288.42 298.287 282.77 303.853 279.987 313.889C275.686 329.49 278.216 334.972 283.276 338.598C287.999 341.887 302.167 342.984 302.335 342.984C303.01 343.068 303.6 343.658 303.6 344.417Z" fill="#F774B9"/>
<path d="M338.345 332.948C333.791 347.706 321.732 355.381 308.913 356.73C296.094 358.079 273.324 359.091 271.132 357.658C270.12 356.983 269.614 355.549 269.782 353.947C274.505 354.453 291.962 355.549 313.383 345.092C333.707 335.225 335.9 311.78 335.984 303.01C340.454 311.78 341.044 324.262 338.345 332.948Z" fill="#F774B9"/>
<path d="M279.312 319.202C279.312 319.202 285.89 329.406 295.336 335.225C304.781 341.044 310.01 342.225 310.01 342.225C310.01 342.225 301.492 344.164 293.312 343.996C285.131 343.827 278.975 339.189 276.867 331.767C274.674 324.262 279.312 319.202 279.312 319.202Z" fill="#F774B9"/>
<path d="M340.623 354.284C339.358 354.284 338.177 354.284 336.996 354.284C334.045 354.284 331.093 354.2 328.31 354.031C323.672 353.778 319.371 353.272 315.323 352.598C290.613 348.212 277.288 335.056 278.3 306.805C279.144 283.866 286.143 256.373 291.288 239.001C291.794 237.314 292.215 235.796 292.721 234.362C294.408 228.796 295.842 224.748 296.432 222.809C296.685 222.05 296.854 221.628 296.854 221.628L367.862 209.231L368.537 209.062C368.537 209.062 371.067 214.881 374.778 224.074C375.452 225.676 376.127 227.363 376.802 229.134C377.561 231.073 378.404 233.097 379.247 235.29C385.235 250.301 392.656 269.698 398.644 287.492C400.415 292.721 402.017 297.781 403.451 302.504C404.8 306.973 405.981 311.274 406.909 315.154C413.149 340.369 381.44 353.863 340.623 354.284Z" fill="#FF97C9"/>
<path d="M369.211 345.092H353.694C348.803 345.092 340.707 345.345 338.261 349.983C337.502 351.333 337.165 352.851 337.08 354.284C334.129 354.284 331.177 354.2 328.394 354.031L327.719 350.489C327.719 350.489 327.719 350.489 331.093 346.188C334.382 342.056 345.092 319.961 345.682 318.864C345.429 319.623 341.466 330.755 348.128 337.839C354.622 344.923 367.778 345.092 369.211 345.092Z" fill="#F774B9"/>
<path d="M319.539 350.236C319.455 350.321 319.37 350.321 319.286 350.405C318.105 351.164 316.756 351.923 315.322 352.598C290.528 348.212 277.288 335.056 278.3 306.805C278.975 288.926 283.36 268.349 287.661 251.904C288.926 247.181 290.107 242.88 291.287 239.001C294.408 235.965 298.877 233.266 304.949 233.266C319.033 233.266 327.045 237.145 332.779 281.42C338.345 325.274 331.093 342.393 319.539 350.236Z" fill="#FFBDE0"/>
<path opacity="0.5" d="M319.539 350.236C319.455 350.321 319.37 350.321 319.286 350.405C318.105 351.164 316.756 351.923 315.322 352.598C290.528 348.212 277.288 335.056 278.3 306.805C278.975 288.926 283.36 268.349 287.661 251.904C286.818 264.048 285.974 295.504 298.034 321.141C305.287 336.574 313.214 345.345 319.539 350.236Z" fill="#F9BC93"/>
<path d="M374.862 224.074C369.633 227.7 359.092 233.856 345.008 237.483C339.611 238.832 333.707 239.844 327.382 240.181C306.889 241.278 297.022 237.145 292.721 234.194C294.408 228.628 295.842 224.58 296.432 222.64C300.564 223.989 311.106 226.435 328.647 224.58C331.768 224.242 334.888 223.652 337.924 222.893C350.574 219.688 361.706 213.11 367.862 208.978L368.537 208.894C368.621 208.978 371.067 214.881 374.862 224.074Z" fill="#738DE0"/>
<path d="M345.008 237.483C339.611 238.832 333.707 239.844 327.382 240.181C306.889 241.278 297.022 237.145 292.721 234.194C294.408 228.628 295.842 224.58 296.432 222.64C300.564 223.989 311.106 226.435 328.647 224.58C331.768 224.242 334.888 223.652 337.924 222.893L345.008 237.483Z" fill="#5A7FDB"/>
<path d="M312.877 244.061C312.877 244.567 312.877 245.073 312.792 245.579C312.118 250.807 307.985 254.855 302.925 254.855C297.444 254.855 292.974 249.964 292.974 243.976C292.974 241.193 293.902 238.663 295.588 236.724C297.444 234.531 300.058 233.182 302.925 233.182C308.407 233.266 312.877 238.073 312.877 244.061Z" fill="#FCBD92"/>
<path d="M312.877 244.061C312.877 244.567 312.877 245.073 312.792 245.579C311.021 247.771 308.323 249.121 305.455 249.121C299.974 249.121 295.504 244.229 295.504 238.326C295.504 237.82 295.504 237.314 295.588 236.808C297.444 234.615 300.058 233.266 302.925 233.266C308.407 233.266 312.877 238.073 312.877 244.061Z" fill="#FFD3B3"/>
<path d="M302.251 246.422C305.744 246.422 308.576 245.063 308.576 243.386C308.576 241.709 305.744 240.35 302.251 240.35C298.758 240.35 295.926 241.709 295.926 243.386C295.926 245.063 298.758 246.422 302.251 246.422Z" fill="#1C3177"/>
<path d="M300.733 253.59V245.579C300.733 244.904 301.323 244.314 302.082 244.314C302.841 244.314 303.432 244.904 303.432 245.579V253.59C303.432 254.265 302.841 254.855 302.082 254.855C301.323 254.855 300.733 254.265 300.733 253.59Z" fill="#1C3177"/>
<path d="M398.728 287.492C396.536 289.6 393.584 291.371 389.789 290.865C379.753 289.516 380.85 285.215 378.91 275.179C376.97 265.144 362.887 266.324 364.067 246.59C364.826 233.434 372.163 229.977 376.97 229.218C377.729 231.157 378.573 233.181 379.416 235.374C385.319 250.301 392.741 269.698 398.728 287.492Z" fill="#F774B9"/>
<path d="M405.812 332.948C401.258 347.706 389.198 355.381 376.379 356.73C363.561 358.079 340.791 359.091 338.598 357.658C337.586 356.983 337.08 355.549 337.249 353.947C337.417 352.007 338.514 349.73 340.622 347.959C344.501 344.67 358.416 344.67 358.416 344.67C358.416 344.67 355.886 344.333 352.26 341.55C348.634 338.683 340.116 333.032 346.863 312.118C353.609 291.203 373.428 286.396 393.162 293.311C397.716 294.914 401.089 298.54 403.366 303.094C407.92 311.78 408.51 324.262 405.812 332.948Z" fill="#FF97C9"/>
<path d="M371.067 344.417C371.067 345.176 370.392 345.682 369.717 345.682C369.549 345.682 350.068 345.345 344.08 347.032C339.104 348.465 338.851 351.586 338.767 353.525V353.947C338.598 355.634 339.526 355.802 339.695 355.802C340.454 355.887 340.96 356.561 340.875 357.32C340.791 357.995 340.201 358.501 339.526 358.501C339.442 358.501 339.442 358.501 339.357 358.501C337.839 358.332 335.731 356.899 336.068 353.694V353.272C336.237 351.164 336.574 346.357 343.321 344.417C345.767 343.743 350.236 343.321 354.706 343.152C352.513 342.478 350.574 341.719 349.224 340.791C342.14 335.815 340.875 327.804 344.923 313.214C347.959 302.335 354.116 296.347 360.356 292.974C361.031 292.637 361.874 292.89 362.127 293.649C362.38 294.239 362.127 294.914 361.537 295.251C355.887 298.287 350.236 303.853 347.453 313.889C343.152 329.49 345.682 334.972 350.742 338.598C355.465 341.887 369.633 342.984 369.802 342.984C370.476 343.068 371.067 343.658 371.067 344.417Z" fill="#F774B9"/>
<path d="M405.812 332.948C401.258 347.706 389.198 355.381 376.379 356.73C363.561 358.079 340.791 359.091 338.598 357.658C337.586 356.983 337.08 355.549 337.249 353.947C341.971 354.453 359.428 355.549 380.849 345.092C401.173 335.225 403.366 311.78 403.45 303.01C407.92 311.78 408.51 324.262 405.812 332.948Z" fill="#FF8AC7"/>
<path d="M346.779 319.202C346.779 319.202 353.357 329.406 362.802 335.225C372.247 341.044 377.476 342.225 377.476 342.225C377.476 342.225 368.958 344.164 360.778 343.996C352.598 343.827 346.441 339.189 344.333 331.767C342.14 324.262 346.779 319.202 346.779 319.202Z" fill="#FF8AC7"/>
<path d="M328.985 350.489C328.985 350.489 327.635 352.26 328.732 354.959C329.828 357.658 329.659 360.525 326.961 361.874C325.611 362.549 320.889 362.633 316.082 362.549C315.576 362.549 314.985 362.549 314.479 362.465C311.612 362.38 308.913 362.212 306.889 362.043C306.13 361.959 305.456 361.959 304.95 361.874C304.865 361.874 304.865 361.874 304.781 361.874C301.323 361.537 298.372 359.26 298.372 356.055C298.372 355.296 298.54 354.453 298.962 353.61C300.986 349.14 309.504 345.514 309.504 345.514C309.504 345.514 316.925 333.876 322.069 310.768C327.214 287.661 326.961 277.372 327.888 266.156C328.479 259.409 328.563 247.097 341.803 245.747C349.478 244.988 354.2 247.265 356.815 251.313C358.754 254.265 359.682 258.144 359.935 262.53C360.61 273.071 358.839 282.517 351.417 305.118C343.996 327.804 328.985 350.489 328.985 350.489Z" fill="#FF97C9"/>
<path d="M328.985 350.489C328.985 350.489 327.635 352.26 328.732 354.959C329.828 357.658 329.659 360.525 326.961 361.874C325.611 362.549 320.889 362.633 316.082 362.549C315.576 362.549 314.985 362.549 314.479 362.465C311.612 362.38 308.913 362.212 306.889 362.043C306.13 361.959 305.456 361.959 304.95 361.874C304.865 361.874 304.865 361.874 304.781 361.874C301.323 361.537 298.372 359.26 298.372 356.055C299.974 355.887 301.745 355.887 303.432 356.055C307.733 356.477 321.395 358.332 322.744 355.381C324.093 352.429 322.069 348.887 322.069 348.887C322.069 348.887 331.936 331.43 341.129 308.997C349.815 287.745 356.224 254.855 356.815 251.398C358.754 254.349 359.682 258.229 359.935 262.614C360.61 273.156 358.839 282.601 351.417 305.202C343.996 327.804 328.985 350.489 328.985 350.489Z" fill="#FF8AC7"/>
<path d="M324.515 363.73C320.298 363.73 305.034 363.308 302.504 362.802C300.817 362.465 299.299 361.284 298.287 359.682C297.191 357.995 296.938 355.971 297.444 353.947C298.456 350.068 306.805 345.851 308.491 345.008C309.166 344.67 309.925 344.923 310.262 345.598C310.6 346.273 310.347 347.032 309.672 347.369C305.961 349.14 300.564 352.598 300.058 354.537C299.721 355.802 299.974 357.067 300.648 358.164C301.239 359.176 302.166 359.85 303.094 360.103C305.54 360.609 323.84 361.115 325.358 360.947C326.201 360.862 327.804 360.188 328.057 357.995C328.31 356.055 327.045 353.104 326.539 352.176C326.286 351.754 326.37 351.164 326.623 350.742C326.623 350.658 330.249 345.767 335.984 336.237C342.056 326.201 349.562 306.805 355.549 285.468C361.621 264.132 356.393 252.916 356.308 252.831C355.971 252.157 356.224 251.398 356.899 251.06C357.573 250.723 358.332 250.976 358.67 251.651C358.923 252.157 364.404 263.795 358.079 286.227C352.007 307.732 344.417 327.466 338.177 337.671C333.538 345.261 330.334 349.983 329.153 351.67C329.743 353.019 330.924 355.887 330.587 358.332C330.165 361.79 327.635 363.477 325.442 363.645C325.358 363.73 325.021 363.73 324.515 363.73Z" fill="#F774B9"/>
<path d="M310.094 350.236C310.094 350.236 307.058 352.092 306.299 355.296C305.708 358.164 306.636 361.368 306.889 362.127C306.13 362.043 305.455 362.043 304.949 361.959C304.528 360.525 303.937 357.658 304.528 354.875C305.371 350.995 308.997 348.803 309.166 348.718C309.588 348.465 310.178 348.634 310.431 349.056C310.6 349.393 310.515 349.983 310.094 350.236Z" fill="#F774B9"/>
<path d="M318.78 350.658C318.696 350.742 316.419 352.345 315.913 356.055C315.407 359.935 316.166 361.706 316.166 361.706C316.25 361.959 316.25 362.296 316.082 362.549C315.576 362.549 314.985 362.549 314.479 362.465C314.395 362.212 313.467 360.188 314.058 355.802C314.648 351.164 317.6 349.224 317.684 349.14C318.106 348.887 318.612 348.971 318.949 349.393C319.286 349.815 319.118 350.405 318.78 350.658Z" fill="#F774B9"/>
<path d="M368.621 208.978C368.621 208.978 366.681 210.749 363.055 213.363C359.428 215.978 343.068 225.339 321.394 226.013C303.262 226.604 276.95 226.435 268.517 208.135C266.83 204.508 265.903 200.123 265.818 194.979C265.397 163.607 303.009 151.631 318.274 151.21C334.634 150.788 351.754 152.643 358.585 163.86C361.958 169.426 364.91 182.413 366.428 191.605C367.946 200.966 368.621 208.978 368.621 208.978Z" fill="#FF97C9"/>
<path d="M317.768 153.318C315.575 155.848 312.708 157.366 309.841 158.294C302.166 160.739 293.902 158.968 293.902 158.968C293.902 158.968 293.058 149.186 293.143 143.957C293.227 141.849 293.396 140.331 293.817 139.234C294.492 137.548 295.504 136.873 297.106 136.704C299.805 136.451 317.768 153.318 317.768 153.318Z" fill="#FF97C9"/>
<path d="M308.069 156.438C301.238 155.511 296.263 157.197 296.263 157.197C296.263 157.197 294.745 149.186 294.829 145.053C294.829 143.367 295.082 142.186 295.419 141.258C296.6 142.186 298.877 144.21 301.913 147.836C304.865 151.547 306.973 154.752 308.069 156.438Z" fill="#FFBDE0"/>
<path d="M361.537 171.534L352.513 167.992L332.104 159.98C332.104 159.98 334.466 143.451 338.261 138.054C338.261 137.969 338.345 137.969 338.345 137.885C342.225 132.656 345.851 133.078 347.453 135.608C349.055 138.138 355.633 152.812 358.332 160.824C361.115 169.004 361.537 171.534 361.537 171.534Z" fill="#FF97C9"/>
<path d="M350.573 156.944L335.815 156.017C335.815 156.017 337.502 144.8 340.285 140.499C341.381 140.246 342.477 140.415 343.489 141.427C345.935 143.957 349.308 152.306 350.32 155.932C350.405 156.185 350.489 156.607 350.573 156.944Z" fill="#FFBDE0"/>
<path d="M338.851 190.003C338.261 190.003 337.671 189.581 337.586 188.991C337.418 188.232 337.839 187.557 338.598 187.389L351.923 184.184C352.682 184.015 353.357 184.437 353.525 185.196C353.694 185.955 353.272 186.63 352.513 186.798L339.189 190.003C339.104 189.919 338.936 190.003 338.851 190.003Z" fill="#F774B9"/>
<path d="M351.839 201.641C351.754 201.641 351.67 201.641 351.586 201.641L339.273 199.195C338.514 199.027 338.092 198.352 338.177 197.593C338.345 196.834 339.02 196.412 339.779 196.497L352.092 198.942C352.851 199.111 353.272 199.786 353.188 200.545C353.019 201.219 352.513 201.641 351.839 201.641Z" fill="#F774B9"/>
<path d="M269.192 198.015C268.517 198.015 267.927 197.509 267.843 196.834C267.758 196.075 268.264 195.4 269.023 195.316L281.252 193.882C282.011 193.798 282.685 194.304 282.77 195.063C282.854 195.822 282.348 196.497 281.589 196.581L269.361 198.015C269.276 198.015 269.276 198.015 269.192 198.015Z" fill="#F774B9"/>
<path d="M281.336 188.063C281.167 188.063 281.083 188.063 280.914 187.979L268.855 183.847C268.18 183.594 267.758 182.835 268.011 182.16C268.264 181.485 269.023 181.064 269.698 181.317L281.758 185.449C282.432 185.702 282.854 186.461 282.601 187.136C282.348 187.726 281.842 188.063 281.336 188.063Z" fill="#F774B9"/>
<path d="M340.791 157.535H332.273C331.514 157.535 330.924 156.944 330.924 156.185C330.924 155.426 331.514 154.836 332.273 154.836H340.791C341.55 154.836 342.14 155.426 342.14 156.185C342.14 156.944 341.55 157.535 340.791 157.535Z" fill="#F774B9"/>
<path d="M310.768 157.535H302.251C301.492 157.535 300.901 156.944 300.901 156.185C300.901 155.426 301.492 154.836 302.251 154.836H310.768C311.527 154.836 312.118 155.426 312.118 156.185C312.033 156.944 311.443 157.535 310.768 157.535Z" fill="#F774B9"/>
<path d="M368.621 208.978C368.621 208.978 366.681 210.749 363.055 213.363C359.428 215.978 343.068 225.339 321.394 226.013C303.262 226.604 276.95 226.435 268.517 208.135C270.878 210.243 282.685 218.929 316.756 217.411C348.971 215.893 362.717 197.762 366.428 191.605C367.946 200.966 368.621 208.978 368.621 208.978Z" fill="#FF8AC7"/>
<path d="M304.106 203.918C303.853 203.918 303.6 203.834 303.431 203.749C302.757 203.328 302.588 202.569 303.01 201.894L305.54 197.677C306.299 196.412 307.648 195.653 309.082 195.569C310.515 195.485 311.949 196.159 312.792 197.34L315.997 201.725C316.419 202.316 316.334 203.159 315.66 203.581C315.069 204.002 314.226 203.918 313.804 203.243L310.6 198.858C310.262 198.352 309.756 198.183 309.166 198.183C308.576 198.183 308.07 198.521 307.817 199.027L305.287 203.243C305.034 203.665 304.612 203.918 304.106 203.918Z" fill="#1C3177"/>
<path d="M286.818 171.618C286.818 175.582 288.673 178.786 290.866 178.786C293.143 178.786 294.914 175.582 294.914 171.618C294.914 170.1 294.661 168.667 294.155 167.486L287.324 168.076C286.987 169.088 286.818 170.353 286.818 171.618Z" fill="#1C3177"/>
<path d="M296.263 169.51H287.745C286.986 169.51 286.396 168.92 286.396 168.161C286.396 167.402 286.986 166.811 287.745 166.811H296.263C297.022 166.811 297.612 167.402 297.612 168.161C297.612 168.92 296.938 169.51 296.263 169.51Z" fill="#1C3177"/>
<path d="M332.695 173.558C332.695 178.028 330.755 181.654 328.31 181.654C325.864 181.654 323.924 178.028 323.924 173.558C323.924 171.787 324.262 170.185 324.768 168.835L332.189 169.51C332.442 170.691 332.695 172.124 332.695 173.558Z" fill="#1C3177"/>
<path d="M333.285 170.944H324.768C324.009 170.944 323.418 170.353 323.418 169.594C323.418 168.835 324.009 168.245 324.768 168.245H333.285C334.044 168.245 334.635 168.835 334.635 169.594C334.635 170.353 333.96 170.944 333.285 170.944Z" fill="#1C3177"/>
</svg>
