<svg width="236" height="178" viewBox="0 0 236 178" fill="none" xmlns="http://www.w3.org/2000/svg">
<path d="M228 147.85C228 147.85 207.279 159.579 192.981 161.925C178.682 164.271 169.897 162.046 169.897 162.046L131 138.346C131.121 138.346 162.081 141.354 190.254 128L228 147.85Z" fill="#9A6DF1"/>
<path d="M236 139.85C236 139.85 215.279 151.579 200.981 153.925C186.682 156.271 177.897 154.046 177.897 154.046L139 130.346C139.121 130.346 170.081 133.354 198.254 120L236 139.85Z" fill="#D6C1FF"/>
<path d="M108 20.6872C108 20.6872 94.4457 28.5081 85.0755 30.1881C75.6464 31.8682 69.8711 30.4198 69.8711 30.4198L44 15.2995C44 15.2995 64.4494 16.9795 82.895 8L108 20.6872Z" fill="#9A6DF1"/>
<path d="M113 15.6612C113 15.6612 99.4332 23.5018 90.0544 25.1861C80.6756 26.8703 74.8359 25.4184 74.8359 25.4184L49 10.2598C49 10.2598 69.4682 11.9441 87.9309 3L113 15.6612Z" fill="#D6C1FF"/>
<path d="M51.0244 140.119C50.2002 140.273 49.3759 139.708 49.2214 138.887L35.8277 64.3344C35.6731 63.5129 36.2398 62.6914 37.064 62.5374L172.804 38.3027C173.628 38.1487 174.453 38.7135 174.607 39.535L188.001 114.087C188.104 114.96 187.537 115.782 186.713 115.884L51.0244 140.119Z" fill="#7244CA"/>
<path fill-rule="evenodd" clip-rule="evenodd" d="M42.6277 54.5278L40.8247 65.2588L53.4457 135.601C53.4457 135.601 75.9575 125.743 92.442 123.278C101.715 121.892 108.566 122.611 112.842 123.484L122.166 121.841C125.875 119.53 132.057 116.501 141.226 114.601C157.556 111.212 182.128 112.65 182.128 112.65L169.507 42.3078L164.098 32.8604L42.6277 54.5278ZM103.672 54.0657L106.66 53.5522C105.733 54.2711 105.321 54.6818 105.321 54.6818C105.321 54.6818 104.754 54.4251 103.672 54.0657Z" fill="url(#paint0_linear_1_78)"/>
<path d="M42.6274 54.5282L55.2484 124.87C55.2484 124.87 76.4208 115.218 92.0296 112.958C107.638 110.648 116.138 114.909 116.138 114.909L103.517 44.5674C103.517 44.5674 94.966 40.3058 79.4086 42.6163C63.7998 44.9268 42.6274 54.5282 42.6274 54.5282Z" fill="url(#paint1_linear_1_78)"/>
<path d="M164.047 32.8605L176.668 103.203C176.668 103.203 153.435 101.508 138.032 104.743C122.578 107.978 116.087 114.909 116.087 114.909L103.466 44.5671C103.517 44.5671 110.008 37.6356 125.411 34.4009C140.865 31.1661 164.047 32.8605 164.047 32.8605Z" fill="url(#paint2_linear_1_78)"/>
<path d="M103.518 44.5671C103.518 44.5671 138.753 20.8973 141.175 0L153.796 70.3421C151.323 91.2907 116.139 114.909 116.139 114.909" fill="url(#paint3_linear_1_78)"/>
<path d="M63.7995 76.1966C62.9752 75.6318 62.7692 74.5022 63.3358 73.6807L67.7146 67.314C68.2812 66.4925 69.4145 66.2871 70.2388 66.8519C71.063 67.4167 71.269 68.5463 70.7024 69.3678L66.3237 75.7345C65.9631 76.248 65.3964 76.5047 64.8298 76.5047C64.4692 76.5047 64.1086 76.402 63.7995 76.1966Z" fill="#45199B"/>
<path d="M69.1575 75.2205L62.7697 70.8562C61.9455 70.2914 61.7394 69.1619 62.3061 68.3404C62.8727 67.5188 64.006 67.3135 64.8303 67.8782L71.218 72.2425C72.0423 72.8073 72.2483 73.9369 71.6817 74.7584C71.3211 75.2205 70.7544 75.5286 70.1877 75.5286C69.8271 75.5286 69.4665 75.4259 69.1575 75.2205Z" fill="#45199B"/>
<path d="M86.2599 72.0365C85.4357 71.4717 85.2296 70.3421 85.7963 69.5206L90.175 63.1538C90.7417 62.3323 91.875 62.1269 92.6992 62.6917C93.5234 63.2565 93.7295 64.3861 93.1628 65.2076L88.7841 71.5743C88.4235 72.0878 87.8569 72.3445 87.2902 72.3445C86.9296 72.3445 86.569 72.2418 86.2599 72.0365Z" fill="#45199B"/>
<path d="M91.6687 71.0613L85.2809 66.6971C84.4567 66.1323 84.2506 65.0027 84.8173 64.1812C85.3839 63.3597 86.5173 63.1543 87.3415 63.7191L93.7293 68.0834C94.5535 68.6481 94.7595 69.7777 94.1929 70.5992C93.8323 71.1127 93.2656 71.3694 92.699 71.3694C92.3384 71.3694 91.9778 71.2667 91.6687 71.0613Z" fill="#45199B"/>
<path d="M67.9207 92.0615C66.9419 91.8561 66.3238 90.9319 66.5298 89.9564C67.8692 83.3329 73.0206 78.3011 79.666 77.0689C86.3113 75.8366 92.9567 78.7119 96.5627 84.4111C97.0778 85.2327 96.8717 86.3622 95.996 86.8757C95.1718 87.3891 94.0385 87.1838 93.5233 86.3109C90.69 81.8439 85.5386 79.6361 80.3357 80.5603C75.1327 81.5358 71.1146 85.4894 70.0843 90.6238C69.8783 91.548 69.1571 92.1128 68.2813 92.1128C68.1783 92.1128 68.0237 92.1128 67.9207 92.0615Z" fill="#45199B"/>
<path fill-rule="evenodd" clip-rule="evenodd" d="M187.832 44.932C188.296 42.3881 189.114 40.3574 190.359 38.7893C191.592 37.2832 193.303 35.608 195.469 33.8876C197.112 32.5846 198.339 31.4621 199.138 30.5822C199.949 29.6402 200.462 28.5798 200.7 27.2768C200.96 25.8496 200.67 24.6425 199.766 23.6441C198.862 22.6456 197.582 21.9631 195.851 21.6471C194.244 21.3538 192.703 21.3932 191.219 21.8275C189.746 22.1998 187.699 22.9161 185.174 23.8016C183.605 24.3487 182.301 24.4954 181.373 24.3261C180.322 24.1343 179.536 23.542 178.964 22.4759C178.392 21.4097 178.225 20.2252 178.463 18.9222C178.633 17.9914 178.955 17.2807 179.377 16.7166C179.799 16.1526 180.469 15.6336 181.239 15.2614C183.782 13.9302 186.504 13.0165 189.59 12.554C192.615 12.0803 195.611 12.1142 198.516 12.6445C201.607 13.2087 204.287 14.2749 206.555 15.8431C208.824 17.4113 210.469 19.2502 211.477 21.4219C212.486 23.5936 212.77 25.8895 212.328 28.3093C211.988 30.1708 211.312 31.7784 210.287 33.1942C209.262 34.61 208.159 35.755 206.966 36.6914C205.773 37.6277 204.152 38.8066 202.189 40.1152C199.955 41.5028 198.262 42.7324 197.119 43.7421C195.977 44.7517 195.121 45.9419 194.602 47.386C194.247 48.2828 193.678 48.9484 192.958 49.394C192.249 49.7776 191.451 49.9524 190.524 49.7832C189.484 49.5293 188.687 48.9991 188.216 48.0796C187.733 47.2222 187.606 46.173 187.832 44.932ZM182.462 58.9548C182.802 57.0934 183.703 55.655 185.093 54.6905C186.494 53.6639 188.152 53.3255 190.007 53.664C191.799 53.9912 193.17 54.8825 194.18 56.3491C195.128 57.8045 195.463 59.4685 195.134 61.2679C194.794 63.1294 193.893 64.5677 192.503 65.5323C191.102 66.5588 189.444 66.8972 187.651 66.57C185.797 66.2315 184.426 65.3403 183.416 63.8736C182.469 62.4183 182.133 60.7542 182.462 58.9548Z" fill="#F38548"/>
<path d="M16.6452 77C13.6129 77 11.0968 74.6585 10.8387 71.6016L10 61H30L29.1613 71.6667C28.9032 74.6585 26.3871 77 23.4194 77H16.6452Z" fill="#7244CA"/>
<path d="M36.9875 32.836L31.6173 33.4338L30.8314 36.3565L23.1691 37.4857L26.2471 33.2346L25.6577 29.5812L32.1412 27.7878V24.8651L36.8565 23.4702C33.1235 17.4255 26.3126 13.5729 18.6502 14.0379C8.76125 14.7021 0.705971 22.8059 0.0510703 32.836C-0.34187 38.4821 1.55734 43.6632 4.89733 47.5823C8.04086 51.2356 9.87458 55.8189 9.87458 60.6679V61H30.111V60.6679C30.111 55.9517 31.7483 51.3685 34.8918 47.848C38.1008 44.261 40 39.5449 40 34.2974C40 33.0353 39.869 31.8397 39.6726 30.7104H37.3149V30.644L36.9875 32.836Z" fill="#FFCA5E"/>
<path fill-rule="evenodd" clip-rule="evenodd" d="M15.1878 61.3858L14 47.4293C14 47.228 14.066 47.0267 14.264 46.8254C14.3959 46.6912 14.6599 46.6241 14.8579 46.6912C14.9239 46.6912 17.0355 47.228 18.9492 46.9596C18.6853 46.6241 18.4873 46.2886 18.4213 45.886C18.2233 44.8125 18.7513 43.8731 19.8071 43.3363C20.797 42.7995 21.9188 42.9337 22.5127 43.5376C22.8426 43.8731 23.3046 44.6783 22.5787 46.0873C22.3807 46.4899 22.1167 46.7583 21.8528 47.0267C23.1726 47.4293 24.9543 47.5635 26.3401 47.5635C26.5381 47.5635 26.67 47.6306 26.802 47.7648C26.934 47.899 27 48.1003 27 48.3016L25.9442 61.3858C25.9442 61.7884 25.6142 62.0568 25.2183 61.9897C24.8223 61.9897 24.5584 61.6542 24.6244 61.2516L25.6142 48.9055C24.3604 48.8384 22.0508 48.7042 20.401 47.9661C18.6853 48.6371 16.6396 48.4358 15.4518 48.2345L16.5736 61.3187C16.5076 61.6542 16.2437 61.9897 15.8477 61.9897C15.5178 61.9897 15.2538 61.7213 15.1878 61.3858ZM20.335 44.5441C20.0711 44.6783 19.5431 45.0137 19.6751 45.6847C19.7411 46.0202 19.9391 46.2886 20.335 46.4899C20.731 46.2215 21.0609 45.886 21.3249 45.4834C21.5888 44.9466 21.5888 44.6112 21.5228 44.477C21.3909 44.3428 21.2589 44.3428 21.0609 44.3428C20.8629 44.3428 20.599 44.4099 20.335 44.5441Z" fill="#E0A224"/>
<path d="M16.6452 77C13.6129 77 11.0968 74.6585 10.8387 71.6016L10 61H30L29.1613 71.6667C28.9032 74.6585 26.3871 77 23.4194 77H16.6452Z" fill="#7244CA"/>
<mask id="mask0_1_78" style="mask-type:alpha" maskUnits="userSpaceOnUse" x="10" y="61" width="20" height="16">
<path d="M16.6452 77C13.6129 77 11.0968 74.6585 10.8387 71.6016L10 61H30L29.1613 71.6667C28.9032 74.6585 26.3871 77 23.4194 77H16.6452Z" fill="white"/>
</mask>
<g mask="url(#mask0_1_78)">
<path d="M11 71.2985C11.0647 72.3433 11.3237 73.2388 11.777 74.1343L27.2518 76C28.0288 75.2537 28.6763 74.2836 29 73.2388L11 71V71.2985Z" fill="#45199B"/>
<path d="M29.8026 67L30 64.2535L10 62L10.1974 64.8169L29.8026 67Z" fill="#45199B"/>
<path d="M10.2721 69.2857L29.7279 71L30 68.7143L10 67L10.2721 69.2857Z" fill="#45199B"/>
</g>
<path d="M23.6372 172.929L28.474 105.705L35.8988 106.227L31.062 173.452C30.9036 175.497 29.142 177.05 27.0895 176.891C25.0369 176.732 23.4788 174.975 23.6372 172.929Z" fill="#7244CA"/>
<path d="M32.4647 96.5675C32.6551 96.1601 33.1814 96.2008 33.3068 96.6327L35.9477 106.283L28.4744 105.704L32.4647 96.5675Z" fill="#ACBAFF"/>
<path d="M31.0497 99.783L34.2592 100.032L33.3091 96.5807C33.1797 96.2012 32.6009 96.1564 32.4673 96.5154L31.0497 99.783Z" fill="#45199B"/>
<defs>
<linearGradient id="paint0_linear_1_78" x1="40.8247" y1="32.8604" x2="40.8247" y2="135.601" gradientUnits="userSpaceOnUse">
<stop stop-color="#E1DEDE"/>
<stop offset="1" stop-color="#EBE9E9"/>
</linearGradient>
<linearGradient id="paint1_linear_1_78" x1="42.6274" y1="41.9297" x2="42.6274" y2="124.87" gradientUnits="userSpaceOnUse">
<stop stop-color="#EBE9E9"/>
<stop offset="1" stop-color="#FAF9F9"/>
</linearGradient>
<linearGradient id="paint2_linear_1_78" x1="103.466" y1="32.417" x2="103.466" y2="114.909" gradientUnits="userSpaceOnUse">
<stop stop-color="#EBE9E9"/>
<stop offset="1" stop-color="#FAF9F9"/>
</linearGradient>
<linearGradient id="paint3_linear_1_78" x1="103.518" y1="0" x2="103.518" y2="114.909" gradientUnits="userSpaceOnUse">
<stop stop-color="#F3F3F3"/>
<stop offset="1" stop-color="white"/>
</linearGradient>
</defs>
</svg>
